<?xml version="1.0" encoding="utf-8"?>
<!-- Generator: Adobe Illustrator 19.2.1, SVG Export Plug-In . SVG Version: 6.00 Build 0)  -->
<svg version="1.1" id="Layer_1" xmlns="http://www.w3.org/2000/svg" xmlns:xlink="http://www.w3.org/1999/xlink" x="0px" y="0px"
	 viewBox="0 0 420 298" style="enable-background:new 0 0 420 298;" xml:space="preserve">
<style type="text/css">
	.st0{fill-rule:evenodd;clip-rule:evenodd;fill:#1A3D74;}
	.st1{fill-rule:evenodd;clip-rule:evenodd;fill:#FFFFFF;}
</style>
<g>
	<g>
		<path class="st0" d="M210.3,223.9c108.3,0,196.1-33.1,196.1-74.1c0-41-87.8-74.2-196.1-74.2c-108.4,0-196.2,33.3-196.2,74.2
			C14.1,190.7,101.9,223.9,210.3,223.9L210.3,223.9z"/>
		<path class="st1" d="M210.3,216.3c-104,0-188.5-29.6-188.5-66.5c0-36.8,84.5-66.8,188.5-66.8c104.2,0,188.6,30,188.6,66.8
			C398.9,186.7,314.6,216.3,210.3,216.3L210.3,216.3z"/>
		<path class="st0" d="M210.3,211.1c100.8,0,182.6-27.4,182.6-61.3c0-33.8-81.8-61.2-182.6-61.2c-100.9,0-182.5,27.4-182.5,61.2
			C27.8,183.6,109.4,211.1,210.3,211.1L210.3,211.1z"/>
		<path class="st1" d="M258.1,162c8.6-8.1,13.4-16.6,25.8-16.4c7.5,0.1,9.4,6.1,10.6,8.6v0l16.3-27.6h10l-27.1,47.9
			c-0.5,1-1.8,2.9-1.6,4.4c0.3,2.4,3.3,1.8,2.2,1.8c5.4-0.3,15.4-10.6,17.8-13.2c0.5-0.6,1.4-1.8,1.9-1.8c0.5,0,1.5,0.5,1.5,1.3
			c0,0.5-1.1,2.4-2,3.5c-5.1,6.3-13.4,16.1-22.9,16.3c-4.7,0-6.5-1.9-7.1-5.6c-2.2,1.9-9.5,5.2-16.9,5.2c-6.2-0.1-8.7-3.8-10-6.7
			c-1.1-2.4-1.6-5.9-0.8-9.5c-3.4,1.8-6.6,2-11.1,1.9c-5.3-0.1-8.6-2.5-10.2-8.7c-6.1,11.1-6.3,11.5-12.5,23.1h0h-10.8l13.8-23.4
			c1.8-3.2,2.7-5.7,3.3-8.3c0.4-1.5-0.8-2.9-2.4-3c-1.8,0-4.7,1.8-7.5,4.4c0,0-7.1,7.6-12.3,15.3c-4.9,7.3-13.4,15.7-22.6,15.7
			c-6.7,0-12.8-3.7-14-10.8c0,0-0.6,1.6-6.6,5.1c-0.5,0.3-1.8,1-2.1,0.8c-1.1-1-1.8-2.3-1.9-3.2c0.4,0.1,1.1-0.5,3.5-2.4
			c4.7-3.5,5.7-6.3,5.7-6.3c1.1-2.4,3.2-6.2,4.6-8.9c3.8-7.6,10.4-15.3,21.1-15.7c1.8,0,2.3,0.8,2.7,1.4c1,0.8,0.6,2.3,0.6,2.3
			c-7.6,1.1-12.8,5.6-15.9,9.9c-1.9,2.8-3.9,7.3-4.3,10.6c-0.8,5.7,1.9,9.5,5.8,10.4c7.3,1.1,13.4-4.2,18.2-12.4
			c1.3-2.2,2.2-7.7,2.2-10.8c0-3-1.6-6.2-2.9-7.5c0-2.2,1.4-3.5,3-3.5c0.5,0,1,0,1.5,0.5c2.5,2.5,3.9,7.3,3.9,11
			c0,1.3,0,2.5-0.3,3.8c5.3-6.5,12-14.8,17.2-16.4c1-0.5,2-0.5,3-0.5c9.5-0.3,8.2,8.3,8.2,8.3c5.1-5.8,8.6-8,13.3-7.7
			c5.1,0.3,6.8,3.8,6.8,6.6c-0.1,3.3-2.5,7.1-6.7,7.2c-3.7,0-5.8-1.8-7-5.1c-2.4,0.9-3.5,2.5-4,5.8c-0.8,4.2,2.4,7.5,6.5,7.5
			C252.6,167.3,255.6,164.3,258.1,162L258.1,162z"/>
		<path class="st1" d="M265.7,107.5c0,4-14.2,11.8-26.2,11.8c-18.7,0-38.2-9-47.2-11c-9.7-2.3-18.6-4.2-25.6-4.2
			c-24.4,0-35.3,10.5-34.8,20.1c0.3,3.9,3.4,6.5,8.1,5.6c5.1-0.9,12.1-5.7,13.9-9.9c0.4-0.9,1.4-1,1.8-0.8c0.8,0.6,0.5,1.5,0.5,1.5
			c-0.6,4.9-8.2,18.6-21.4,18.6c-7.3,0-12.3-6.8-12.1-13.5c0.1-12.5,12.9-25.2,44.4-25.2c5.9,0,12.6,0.5,20,1.8
			c8.5,1.5,29.6,5.1,46.8,5.3c6.3,0,14.4,0.3,21-0.8c7-1.1,5.4-1.4,8.2-1.4C265.7,105.5,265.7,106.5,265.7,107.5L265.7,107.5z"/>
		<path class="st0" d="M284.4,151.5c-4.4-0.5-10,3.3-14.5,8.9c-2.3,2.8-4.7,8.1-5.1,11.3c-0.5,3.2,0.4,6.3,1.5,7.2
			c1.1,0.9,6.2,3.5,14-4.4c4.4-4.4,8.7-11.6,8.7-11.6v0l-1.4-0.4C290.4,157.5,289.9,152.1,284.4,151.5L284.4,151.5z"/>
		<path class="st1" d="M192,136.6c0,1.4,1.9,2.5,3.5,2.7c-0.4,1.4-0.3,2-0.9,1.9c-3.8,0-5.3-3.7-5.3-3.7c-5.1,0.9-10,1.5-20,2.5
			c-25.2,40.7-33,47.4-48.4,47.4c-11,0-20.7-7.2-21-20.1c-0.1-7.8,6.2-17.5,18-20.4c1.4,0,1.9,0.5,1.9,1.3c0,0.5-0.5,1.1-1.6,1.6
			c-3.4,1.3-9.4,8-9.4,14.2c0,4.7,2.9,9.9,7.8,11c1.4,0.4,2.7,0.3,3.9,0.3c12.3,0,26.1-13.8,41-34.8c-2.4,0.1-12.6,1.3-15.2,4.2
			c-1.1,0.9-1.9,0.4-2.2-0.6c0-0.3,0.4-1.1,0.8-1.6c4-4.6,16.2-5.6,19.1-5.9c11.4-17.5,26.1-28.3,29.1-28.2c0.5,0,1.6,0.8,1.1,2
			c-0.1,0.3-1.4,1.6-1.9,2c-2.5,2.3-11.1,7.8-20.5,23.7c7.6-0.4,16.4-1.9,16.4-1.9s-0.5-1.6-0.5-3c0.4-5.4,3.5-8.7,7.6-8.1
			c2.3,0.4,3.8,2.3,3.8,4.3c0,2.2-1.6,5.3-3.3,6.8C194.8,134.9,193.5,135.8,192,136.6L192,136.6z"/>
		<path class="st0" d="M191.4,133.8c0,0,1.3,0.1,3.2-2c0.8-0.8,2-3,1.8-4.6c-0.1-0.8-0.5-1.6-1.4-1.5c-1.9,0.4-3,1.3-3.5,3.2
			C190.7,130.9,191,132.3,191.4,133.8L191.4,133.8z"/>
	</g>
</g>
</svg>
